<svg width="28" height="28" viewBox="0 0 28 28" fill="none" xmlns="http://www.w3.org/2000/svg">
<path d="M14 14.8334C14.4602 14.8334 14.8333 14.4603 14.8333 14.0001C14.8333 13.5398 14.4602 13.1667 14 13.1667C13.5397 13.1667 13.1666 13.5398 13.1666 14.0001C13.1666 14.4603 13.5397 14.8334 14 14.8334Z" stroke="#98A2B3" stroke-width="1.66667" stroke-linecap="round" stroke-linejoin="round"/>
<path d="M19.8333 14.8334C20.2935 14.8334 20.6666 14.4603 20.6666 14.0001C20.6666 13.5398 20.2935 13.1667 19.8333 13.1667C19.3731 13.1667 19 13.5398 19 14.0001C19 14.4603 19.3731 14.8334 19.8333 14.8334Z" stroke="#98A2B3" stroke-width="1.66667" stroke-linecap="round" stroke-linejoin="round"/>
<path d="M8.16665 14.8334C8.62688 14.8334 8.99998 14.4603 8.99998 14.0001C8.99998 13.5398 8.62688 13.1667 8.16665 13.1667C7.70641 13.1667 7.33331 13.5398 7.33331 14.0001C7.33331 14.4603 7.70641 14.8334 8.16665 14.8334Z" stroke="#98A2B3" stroke-width="1.66667" stroke-linecap="round" stroke-linejoin="round"/>
</svg>
